<svg xmlns="http://www.w3.org/2000/svg" version="1.1" xmlns:xlink="http://www.w3.org/1999/xlink" xmlns:svgjs="http://svgjs.dev/svgjs" width="1500" height="382" viewBox="0 0 1500 382"><g transform="matrix(1,0,0,1,-0.9088602581908845,-0.473982765622452)"><svg viewBox="0 0 396 101" data-background-color="#ffffff" preserveAspectRatio="xMidYMid meet" height="382" width="1500" xmlns="http://www.w3.org/2000/svg" xmlns:xlink="http://www.w3.org/1999/xlink"><g id="tight-bounds" transform="matrix(1,0,0,1,0.23993910816238895,0.12532005059651397)"><svg viewBox="0 0 395.52 100.74923811513172" height="100.74923811513172" width="395.52"><g><svg viewBox="0 0 568.3746840428122 144.779824993027" height="100.74923811513172" width="395.52"><g transform="matrix(1,0,0,1,0,42.65917001338813)"><svg viewBox="0 0 395.52 59.46148496625075" height="59.46148496625075" width="395.52"><g id="textblocktransform"><svg viewBox="0 0 395.52 59.46148496625075" height="59.46148496625075" width="395.52" id="textblock"><g><svg viewBox="0 0 395.52 59.46148496625075" height="59.46148496625075" width="395.52"><g transform="matrix(1,0,0,1,0,0)"><svg width="395.52" viewBox="1.75 -36.4 244.43 36.75" height="59.46148496625075" data-palette-color="#636365"><g class="wordmark-text-0" data-fill-palette-color="primary" id="text-0"><path d="M39.4 0L39.4 0Q37.8 0 36.33-0.9 34.85-1.8 33.95-3.75 33.05-5.7 33.05-8.75L33.05-8.75Q33.05-11.25 33.65-14.38 34.25-17.5 35.23-20.65 36.2-23.8 37.35-26.35L37.35-26.35Q33.9-24.05 31.3-20 28.7-15.95 26.8-10.6L26.8-10.6Q27.2-9 27.45-7.6 27.7-6.2 27.7-5.05L27.7-5.05Q27.7-2.85 26.65-1.6 25.6-0.35 23-0.35L23-0.35Q20.7-0.35 19.63-1.38 18.55-2.4 18.55-4.25L18.55-4.25Q18.55-5.45 18.98-7 19.4-8.55 20.2-10.35L20.2-10.35Q19.3-13 18-16.32 16.7-19.65 14.35-23.6L14.35-23.6Q13.65-20.65 12.93-17.73 12.2-14.8 11.73-12.33 11.25-9.85 11.25-8.15L11.25-8.15Q11.25-5.4 12.75-5.4L12.75-5.4 12.85-5.3Q12.85-3.65 12.03-2.48 11.2-1.3 9.93-0.68 8.65-0.05 7.25-0.05L7.25-0.05Q5.9-0.05 4.63-0.7 3.35-1.35 2.55-2.73 1.75-4.1 1.75-6.25L1.75-6.25Q1.75-8.3 2.48-10.73 3.2-13.15 4.3-15.68 5.4-18.2 6.55-20.63 7.7-23.05 8.63-25.18 9.55-27.3 9.85-28.9L9.85-28.9Q8.85-29.6 7.7-29.6L7.7-29.6Q6.75-29.6 5.78-28.98 4.8-28.35 3.95-26.9L3.95-26.9 3.6-27.05Q3.65-29.6 4.7-31.73 5.75-33.85 7.48-35.13 9.2-36.4 11.25-36.4L11.25-36.4Q13.6-36.4 16.1-34.35 18.6-32.3 20.73-27.6 22.85-22.9 24.15-14.9L24.15-14.9Q26.05-21.05 28.25-25.2 30.45-29.35 32.77-31.8 35.1-34.25 37.38-35.33 39.65-36.4 41.7-36.4L41.7-36.4Q44.25-36.4 46.28-35.15 48.3-33.9 49.48-32 50.65-30.1 50.65-28.2L50.65-28.2Q49.4-28.55 48.18-28.7 46.95-28.85 45.8-28.85L45.8-28.85Q44.65-28.85 43.6-28.7L43.6-28.7Q43.15-26.4 42.65-23.58 42.15-20.75 41.78-17.9 41.4-15.05 41.4-12.65L41.4-12.65Q41.4-10.2 41.9-8.65 42.4-7.1 43.65-7.1L43.65-7.1Q44.45-7.1 45.28-7.8 46.1-8.5 46.5-9.95L46.5-9.95 46.85-9.8Q46.85-6.5 45.75-4.33 44.65-2.15 42.93-1.07 41.2 0 39.4 0ZM60.7-26.75L60.7-26.75Q58.7-26.75 57.42-27.98 56.15-29.2 56.15-31.05L56.15-31.05Q56.15-33.05 57.65-34.5 59.15-35.95 61.3-35.95L61.3-35.95Q63.3-35.95 64.57-34.7 65.85-33.45 65.85-31.6L65.85-31.6Q65.85-29.6 64.35-28.18 62.85-26.75 60.7-26.75ZM57.2 0.2L57.2 0.2Q55.25 0.2 53.7-1.18 52.15-2.55 52.15-5.6L52.15-5.6Q52.15-7.35 52.62-8.88 53.1-10.4 53.72-11.85 54.35-13.3 54.82-14.68 55.3-16.05 55.3-17.4L55.3-17.4Q55.3-18.6 54.9-19.13 54.5-19.65 53.95-19.65L53.95-19.65Q53.1-19.65 52.3-18.55L52.3-18.55 51.95-18.75Q52.15-20.75 53.22-22.18 54.3-23.6 55.87-24.4 57.45-25.2 59-25.2L59-25.2Q60.9-25.2 62.3-23.98 63.7-22.75 63.7-20L63.7-20Q63.7-18.35 63.22-16.53 62.75-14.7 62.12-12.9 61.5-11.1 61.02-9.55 60.55-8 60.55-6.9L60.55-6.9Q60.55-5.95 60.92-5.55 61.3-5.15 61.75-5.15L61.75-5.15Q62.2-5.15 62.62-5.43 63.05-5.7 63.25-6.05L63.25-6.05 63.6-5.95Q63.6-4.1 62.62-2.73 61.65-1.35 60.2-0.58 58.75 0.2 57.2 0.2ZM73.25 0.2L73.25 0.2Q71.9 0.2 70.62-0.48 69.35-1.15 68.55-2.65 67.75-4.15 67.75-6.5L67.75-6.5Q67.75-8.6 68.32-11.43 68.9-14.25 69.62-17.3 70.35-20.35 70.9-23.25 71.45-26.15 71.4-28.4L71.4-28.4Q71.4-30.55 70.9-31.45L70.9-31.45 70.85-31.6Q71.4-33.2 72.8-34.1 74.2-35 75.75-35L75.75-35Q77.5-35 78.87-33.68 80.25-32.35 80.25-29.25L80.25-29.25Q80.25-27.6 79.85-25.33 79.45-23.05 78.9-20.48 78.35-17.9 77.77-15.4 77.2-12.9 76.8-10.8 76.4-8.7 76.4-7.35L76.4-7.35Q76.4-5.95 76.8-5.43 77.2-4.9 77.7-4.9L77.7-4.9Q78.25-4.9 78.75-5.33 79.25-5.75 79.4-6.1L79.4-6.1 79.8-6Q79.75-4.2 78.77-2.8 77.8-1.4 76.32-0.6 74.85 0.2 73.25 0.2ZM101.34 0.25L101.34 0.25Q99.69 0.25 98.24-0.53 96.79-1.3 95.89-2.8 94.99-4.3 94.99-6.4L94.99-6.4Q94.99-8.55 96.04-11.25L96.04-11.25Q96.84-11.65 97.94-12.5 99.04-13.35 99.89-14.43 100.74-15.5 100.74-16.55L100.74-16.55Q100.74-17.5 100.02-18.05 99.29-18.6 98.24-18.6L98.24-18.6Q96.94-18.6 95.79-17.8 94.64-17 93.77-15.73 92.89-14.45 92.42-12.98 91.94-11.5 91.94-10.15L91.94-10.15Q91.94-8.85 92.27-7.73 92.59-6.6 92.59-5.15L92.59-5.15Q92.59-2.9 91.39-1.35 90.19 0.2 87.84 0.2L87.84 0.2Q85.69 0.2 84.39-1.25 83.09-2.7 83.09-5.2L83.09-5.2Q83.09-6.5 83.42-8.65 83.74-10.8 84.24-13.4 84.74-16 85.22-18.78 85.69-21.55 86.02-24.13 86.34-26.7 86.34-28.75L86.34-28.75Q86.34-29.85 86.22-30.78 86.09-31.7 85.69-32.25L85.69-32.25 85.69-32.55Q86.79-33.8 88.09-34.4 89.39-35 90.64-35L90.64-35Q92.54-35 93.89-33.65 95.24-32.3 95.24-29.65L95.24-29.65Q95.24-28.25 94.87-26.25 94.49-24.25 93.97-22.05 93.44-19.85 92.89-17.85L92.89-17.85Q93.99-19.45 95.39-21.15 96.79-22.85 98.54-24.03 100.29-25.2 102.49-25.2L102.49-25.2Q105.04-25.2 106.49-23.58 107.94-21.95 107.94-19.7L107.94-19.7Q107.94-17.45 106.32-14.9 104.69-12.35 100.89-10.6L100.89-10.6Q101.54-9.15 102.69-8 103.84-6.85 105.22-6.23 106.59-5.6 107.79-5.6L107.79-5.6Q108.39-5.6 108.84-5.8L108.84-5.8 109.14-5.5Q107.89-2.6 105.72-1.18 103.54 0.25 101.34 0.25ZM122.99 0.3L122.99 0.3Q119.84 0.3 117.57-0.98 115.29-2.25 113.82-4.48 112.34-6.7 111.67-9.53 110.99-12.35 111.09-15.4L111.09-15.4Q111.29-20.85 113.09-24.8 114.89-28.75 117.64-31.3 120.39-33.85 123.57-35.08 126.74-36.3 129.69-36.3L129.69-36.3Q132.19-36.3 134.22-35.48 136.24-34.65 137.44-33.08 138.64-31.5 138.64-29.25L138.64-29.25Q138.64-27.5 137.62-25.88 136.59-24.25 134.52-23.23 132.44-22.2 129.19-22.2L129.19-22.2Q129.74-23.8 129.99-25 130.24-26.2 130.24-27.05L130.24-27.05Q130.24-28.8 129.44-29.43 128.64-30.05 127.44-30.05L127.44-30.05Q125.99-30.05 124.69-29 123.39-27.95 122.37-26.18 121.34-24.4 120.74-22.25 120.14-20.1 120.04-17.9L120.04-17.9Q119.84-12.35 121.64-9.5 123.44-6.65 126.29-6.65L126.29-6.65Q128.49-6.65 131.17-8.45 133.84-10.25 136.44-13.9L136.44-13.9 137.09-13.6Q136.44-9.1 134.24-6 132.04-2.9 129.07-1.3 126.09 0.3 122.99 0.3ZM145.59 0.2L145.59 0.2Q143.44 0.2 142.14-1.25 140.84-2.7 140.84-5.2L140.84-5.2Q140.84-6.55 141.19-8.72 141.54-10.9 142.06-13.53 142.59-16.15 143.09-18.88 143.59-21.6 143.94-24.15 144.29-26.7 144.29-28.65L144.29-28.65Q144.29-31.1 143.64-32.2L143.64-32.2 143.64-32.5Q144.74-33.75 146.04-34.35 147.34-34.95 148.59-34.95L148.59-34.95Q150.49-34.95 151.84-33.6 153.19-32.25 153.19-29.55L153.19-29.55Q153.19-28.1 152.79-26 152.39-23.9 151.84-21.6 151.29-19.3 150.74-17.3L150.74-17.3Q151.69-19.15 153.26-20.98 154.84-22.8 156.86-24 158.89-25.2 161.09-25.2L161.09-25.2Q163.59-25.2 164.46-23.65 165.34-22.1 165.34-19.8L165.34-19.8Q165.34-17.7 164.89-15.33 164.44-12.95 163.99-10.78 163.54-8.6 163.54-7.15L163.54-7.15Q163.54-5.05 164.79-5.05L164.79-5.05Q165.34-5.05 165.76-5.38 166.19-5.7 166.39-6.1L166.39-6.1 166.74-5.85Q166.74-3.9 165.79-2.55 164.84-1.2 163.36-0.5 161.89 0.2 160.34 0.2L160.34 0.2Q158.29 0.2 156.64-1.18 154.99-2.55 154.99-5.65L154.99-5.65Q154.99-7.4 155.46-9.45 155.94-11.5 156.39-13.43 156.84-15.35 156.84-16.65L156.84-16.65Q156.84-18.35 155.64-18.35L155.64-18.35Q154.54-18.35 153.24-17.25 151.94-16.15 150.96-14.5 149.99-12.85 149.69-11.25L149.69-11.25Q149.59-10.85 149.59-10.3L149.59-10.3Q149.59-9.05 149.96-7.9 150.34-6.75 150.34-5.2L150.34-5.2Q150.34-2.9 149.14-1.35 147.94 0.2 145.59 0.2ZM180.14 0.35L180.14 0.35Q176.49 0.35 174.09-1.13 171.69-2.6 170.49-5.03 169.29-7.45 169.29-10.25L169.29-10.25Q169.29-12.9 170.31-15.58 171.34-18.25 173.31-20.45 175.29-22.65 178.11-24 180.94-25.35 184.49-25.35L184.49-25.35Q188.89-25.35 190.91-23.38 192.94-21.4 192.94-18.6L192.94-18.6Q192.94-16.2 191.66-14.18 190.39-12.15 188.29-10.93 186.19-9.7 183.69-9.7L183.69-9.7Q182.39-9.7 181.04-10.1 179.69-10.5 178.39-11.35L178.39-11.35Q178.64-8.25 180.19-6.85 181.74-5.45 183.89-5.45L183.89-5.45Q185.39-5.45 186.89-6.03 188.39-6.6 189.66-7.53 190.94-8.45 191.64-9.5L191.64-9.5 191.99-9.25Q191.99-6.65 190.91-4.83 189.84-3 188.09-1.85 186.34-0.7 184.26-0.18 182.19 0.35 180.14 0.35ZM181.29-13.15L181.29-13.15Q182.89-13.15 183.89-14.08 184.89-15 185.39-16.25 185.89-17.5 185.89-18.45L185.89-18.45Q185.89-19.6 185.24-20.38 184.59-21.15 183.44-21.15L183.44-21.15Q182.54-21.15 181.46-20.5 180.39-19.85 179.54-18.28 178.69-16.7 178.44-13.9L178.44-13.9Q180.04-13.15 181.29-13.15ZM205.08 0.35L205.08 0.35Q201.78 0.35 199.51-1.15 197.23-2.65 196.08-5.08 194.93-7.5 194.93-10.3L194.93-10.3Q194.93-12.95 195.96-15.6 196.98-18.25 198.98-20.48 200.98-22.7 203.86-24.03 206.73-25.35 210.48-25.35L210.48-25.35Q214.18-25.35 215.98-23.88 217.78-22.4 217.78-20.65L217.78-20.65Q217.78-18.8 215.93-17.25 214.08-15.7 210.53-15.7L210.53-15.7Q210.73-16.45 210.86-17.23 210.98-18 210.98-18.7L210.98-18.7Q210.98-19.75 210.53-20.48 210.08-21.2 208.93-21.2L208.93-21.2Q207.88-21.2 206.71-20.25 205.53-19.3 204.71-17.45 203.88-15.6 203.88-12.9L203.88-12.9Q203.88-10.25 204.76-8.6 205.63-6.95 207.03-6.23 208.43-5.5 209.98-5.5L209.98-5.5Q212.03-5.5 213.93-6.58 215.83-7.65 216.68-9.55L216.68-9.55 217.18-9.35Q217.18-6.75 216.01-4.93 214.83-3.1 212.98-1.93 211.13-0.75 209.03-0.2 206.93 0.35 205.08 0.35ZM238.38 0.25L238.38 0.25Q236.73 0.25 235.28-0.53 233.83-1.3 232.93-2.8 232.03-4.3 232.03-6.4L232.03-6.4Q232.03-8.55 233.08-11.25L233.08-11.25Q233.88-11.65 234.98-12.5 236.08-13.35 236.93-14.43 237.78-15.5 237.78-16.55L237.78-16.55Q237.78-17.5 237.06-18.05 236.33-18.6 235.28-18.6L235.28-18.6Q233.98-18.6 232.83-17.8 231.68-17 230.81-15.73 229.93-14.45 229.46-12.98 228.98-11.5 228.98-10.15L228.98-10.15Q228.98-8.85 229.31-7.73 229.63-6.6 229.63-5.15L229.63-5.15Q229.63-2.9 228.43-1.35 227.23 0.2 224.88 0.2L224.88 0.2Q222.73 0.2 221.43-1.25 220.13-2.7 220.13-5.2L220.13-5.2Q220.13-6.5 220.46-8.65 220.78-10.8 221.28-13.4 221.78-16 222.26-18.78 222.73-21.55 223.06-24.13 223.38-26.7 223.38-28.75L223.38-28.75Q223.38-29.85 223.26-30.78 223.13-31.7 222.73-32.25L222.73-32.25 222.73-32.55Q223.83-33.8 225.13-34.4 226.43-35 227.68-35L227.68-35Q229.58-35 230.93-33.65 232.28-32.3 232.28-29.65L232.28-29.65Q232.28-28.25 231.91-26.25 231.53-24.25 231.01-22.05 230.48-19.85 229.93-17.85L229.93-17.85Q231.03-19.45 232.43-21.15 233.83-22.85 235.58-24.03 237.33-25.2 239.53-25.2L239.53-25.2Q242.08-25.2 243.53-23.58 244.98-21.95 244.98-19.7L244.98-19.7Q244.98-17.45 243.36-14.9 241.73-12.35 237.93-10.6L237.93-10.6Q238.58-9.15 239.73-8 240.88-6.85 242.26-6.23 243.63-5.6 244.83-5.6L244.83-5.6Q245.43-5.6 245.88-5.8L245.88-5.8 246.18-5.5Q244.93-2.6 242.76-1.18 240.58 0.25 238.38 0.25Z" fill="#636365" data-fill-palette-color="primary"></path></g></svg></g></svg></g></svg></g></svg></g><g transform="matrix(1,0,0,1,423.5948590497852,0)"><svg viewBox="0 0 144.779824993027 144.779824993027" height="144.779824993027" width="144.779824993027"><g><svg></svg></g><g id="icon-0"><svg viewBox="0 0 144.779824993027 144.779824993027" height="144.779824993027" width="144.779824993027"><g><path d="M0 72.39c0-39.98 32.41-72.39 72.39-72.39 39.98 0 72.39 32.41 72.39 72.39 0 39.98-32.41 72.39-72.39 72.39-39.98 0-72.39-32.41-72.39-72.39zM72.39 139.418c37.018 0 67.028-30.009 67.028-67.028 0-37.018-30.009-67.028-67.028-67.028-37.018 0-67.028 30.009-67.028 67.028 0 37.018 30.009 67.028 67.028 67.028z" data-fill-palette-color="accent" fill="#89939e" stroke="transparent"></path></g><g transform="matrix(1,0,0,1,30.498003373177966,43.47320781166813)"><svg viewBox="0 0 83.78381824667107 57.83340936969074" height="57.83340936969074" width="83.78381824667107"><g><svg version="1.1" xmlns="http://www.w3.org/2000/svg" xmlns:xlink="http://www.w3.org/1999/xlink" x="0" y="0" viewBox="0.000719896123889896 15.488235293399876 99.99728010387611 69.02506661938718" enable-background="new 0 0 100 100" xml:space="preserve" height="57.83340936969074" width="83.78381824667107" class="icon-cg-0" data-fill-palette-color="accent" id="cg-0"><path d="M96.359 15.578c0.483 0.364-1.021 4.662 1.617 4.046-0.928 2.6-3.319 2.664-3.641 5.257-0.48 3.892 3.684 6.832 5.663 9.305-1.108 4.01-6.571 4.383-9.306 1.617-2.699 0.595-5.217-0.259-7.278 0.81-4.985 2.583-2.819 11.989-4.854 18.202-1.859 5.68-5.606 6.752-6.877 10.517 0.789 3.487-0.203 6.599 0.404 9.306 0.652 2.9 3.829 4.34 3.643 7.28-0.652 0.604-2.029-0.351-3.643 0-0.773-2.058-1.865-3.799-3.236-5.259-0.218-2.612 0.471-6.133-0.402-8.09-3.342 4.345-0.76 11.592 2.427 14.158-5.765 2.053-7.634-5.22-6.067-10.518-1.672-2.777-4.115-4.784-3.641-9.708-3.398-0.585-6.609 1.216-10.111 1.616-9.477 1.09-19.491-1.128-27.911-2.021-1.769 3.436-2.413 8.178-1.618 12.54 0.762 4.169 5.063 6.873 6.067 9.708-9.663 1.771-7.412-10.852-12.539-14.562 0.238-2.998 0.995-5.479 0.81-8.899-1.693 3.521-5.769 8.073-6.067 12.943-0.226 3.677 2.116 5.921 3.236 9.304-1.485 0-2.967 0-4.45 0-0.71-2.271-0.851-3.328-0.81-6.473 0.046-3.55-1.861-8.068-1.617-10.921 0.221-2.579 2.68-4.815 2.831-7.279 0.17-2.768-1.577-6.098-2.428-8.899-0.849-2.803-1.473-5.962-3.64-7.686-0.87 12.36 2.372 24.366 0.809 34.785-3.236-1.14-2.022-5.468-2.022-8.091 0-5.69-0.108-10.68-0.404-16.584-0.434-8.685-2.702-17.604 0-22.649 12.972-4.323 29.737-0.416 47.326-1.214 8.604-0.391 18.312-0.407 23.46-1.618 2.501-0.589 4.492-2.761 7.281-2.022-0.003-2.021-2.104-3.644-0.811-5.663 2.035 0.122 3.016 1.3 4.854 1.618 2.467-1.983 3.336-5.564 8.494-4.854-0.779 1.513-4.063 0.522-3.642 3.236C91.165 19.545 95.564 18.295 96.359 15.578z" fill="#89939e" data-fill-palette-color="accent"></path></svg></g></svg></g></svg></g></svg></g></svg></g><defs></defs></svg><rect width="395.52" height="100.74923811513172" fill="none" stroke="none" visibility="hidden"></rect></g></svg></g></svg>